<svg id="Layer_1" viewBox="0 0 800 800" xmlns="http://www.w3.org/2000/svg" data-name="Layer 1"><path d="m750 696.76h-700a10 10 0 0 1 -10-10v-573.52a10 10 0 0 1 10-10h700a10 10 0 0 1 10 10v573.52a10 10 0 0 1 -10 10zm-690-20h680v-553.52h-680z"/><path d="m750 601.17h-700a10 10 0 0 1 0-20h700a10 10 0 0 1 0 20z"/><path d="m750 505.58h-700a10 10 0 1 1 0-20h700a10 10 0 0 1 0 20z"/><path d="m750 410h-700a10 10 0 0 1 0-20h700a10 10 0 0 1 0 20z"/><path d="m750 314.41h-700a10 10 0 0 1 0-20h700a10 10 0 0 1 0 20z"/><path d="m750 218.83h-700a10 10 0 0 1 0-20h700a10 10 0 0 1 0 20z"/><path d="m633.33 314.41a10 10 0 0 1 -10-10v-95.59a10 10 0 0 1 20 0v95.59a10 10 0 0 1 -10 10z"/><path d="m633.33 696.76a10 10 0 0 1 -10-10v-95.59a10 10 0 0 1 20 0v95.59a10 10 0 0 1 -10 10z"/><path d="m633.33 505.58a10 10 0 0 1 -10-10v-95.58a10 10 0 1 1 20 0v95.58a10 10 0 0 1 -10 10z"/><path d="m516.66 410a10 10 0 0 1 -10-10v-95.59a10 10 0 0 1 20 0v95.59a10 10 0 0 1 -10 10z"/><path d="m516.66 601.17a10 10 0 0 1 -10-10v-95.59a10 10 0 1 1 20 0v95.59a10 10 0 0 1 -10 10z"/><path d="m516.66 218.82a10 10 0 0 1 -10-10v-95.58a10 10 0 0 1 20 0v95.58a10 10 0 0 1 -10 10z"/><path d="m400 314.41a10 10 0 0 1 -10-10v-95.59a10 10 0 1 1 20 0v95.59a10 10 0 0 1 -10 10z"/><path d="m400 696.76a10 10 0 0 1 -10-10v-95.59a10 10 0 0 1 20 0v95.59a10 10 0 0 1 -10 10z"/><path d="m400 505.58a10 10 0 0 1 -10-10v-95.58a10 10 0 0 1 20 0v95.58a10 10 0 0 1 -10 10z"/><path d="m283.33 410a10 10 0 0 1 -10-10v-95.59a10 10 0 0 1 20 0v95.59a10 10 0 0 1 -10 10z"/><path d="m283.33 601.17a10 10 0 0 1 -10-10v-95.59a10 10 0 0 1 20 0v95.59a10 10 0 0 1 -10 10z"/><path d="m283.33 218.82a10 10 0 0 1 -10-10v-95.58a10 10 0 0 1 20 0v95.58a10 10 0 0 1 -10 10z"/><path d="m166.66 314.41a10 10 0 0 1 -10-10v-95.59a10 10 0 0 1 20 0v95.59a10 10 0 0 1 -10 10z"/><path d="m166.66 696.76a10 10 0 0 1 -10-10v-95.59a10 10 0 0 1 20 0v95.59a10 10 0 0 1 -10 10z"/><path d="m166.66 505.58a10 10 0 0 1 -10-10v-95.58a10 10 0 0 1 20 0v95.58a10 10 0 0 1 -10 10z"/></svg>