<?xml version="1.0"?>
<svg xmlns="http://www.w3.org/2000/svg" id="Line_Expand" data-name="Line Expand" viewBox="0 0 64 64" width="512" height="512"><path d="M35,22V17.0049a4.9716,4.9716,0,0,0-3.5454-4.7837,25.5309,25.5309,0,0,0-14.9092,0A4.9716,4.9716,0,0,0,13,17.0049V22a11,11,0,0,0,22,0Zm-3,1H27.6567a3.0221,3.0221,0,0,1-2.1211-.8784,2.1735,2.1735,0,0,0-3.0712,0A3.0221,3.0221,0,0,1,20.3433,23H16a1.0013,1.0013,0,0,1-1-1V19a1.0013,1.0013,0,0,1,1-1H32a1.0013,1.0013,0,0,1,1,1v3A1.0013,1.0013,0,0,1,32,23ZM17.1274,14.1343a23.555,23.555,0,0,1,13.7452,0,2.9772,2.9772,0,0,1,1.997,2.0094A2.9576,2.9576,0,0,0,32,16H16a2.9582,2.9582,0,0,0-.87.1437A2.9774,2.9774,0,0,1,17.1274,14.1343ZM15.5069,24.95A2.9687,2.9687,0,0,0,16,25h4.3433a4.9662,4.9662,0,0,0,3.5351-1.4644.1734.1734,0,0,1,.2432,0A4.9662,4.9662,0,0,0,27.6567,25H32a2.9687,2.9687,0,0,0,.4931-.05,8.9864,8.9864,0,0,1-16.9862,0Z"/><path d="M52,3A11,11,0,1,0,63,14,11.0125,11.0125,0,0,0,52,3Zm0,2a8.951,8.951,0,0,1,5.6109,1.975l-2.858,2.858A4.9686,4.9686,0,0,0,53,9.1011V8a1,1,0,0,0-2,0V9.1011a4.9686,4.9686,0,0,0-1.7529.7319L48.4644,9.05A1,1,0,0,0,47.05,10.4644l.7827.7827A4.9686,4.9686,0,0,0,47.1011,13H46a1,1,0,0,0,0,2h1.1011a4.9686,4.9686,0,0,0,.7319,1.7529l-2.858,2.858A8.989,8.989,0,0,1,52,5Zm3,9a3.0033,3.0033,0,0,1-3,3,2.9659,2.9659,0,0,1-1.2853-.3006l3.9847-3.9847A2.9659,2.9659,0,0,1,55,14Zm-6,0a3.0033,3.0033,0,0,1,3-3,2.9659,2.9659,0,0,1,1.2853.3006l-3.9847,3.9847A2.9659,2.9659,0,0,1,49,14Zm3,9a8.951,8.951,0,0,1-5.6109-1.975l2.858-2.858A4.9686,4.9686,0,0,0,51,18.8989V20a1,1,0,0,0,2,0V18.8989a4.9686,4.9686,0,0,0,1.7529-.7319l.7827.7827A1,1,0,0,0,56.95,17.5356l-.7827-.7827A4.9686,4.9686,0,0,0,56.8989,15H58a1,1,0,0,0,0-2H56.8989a4.9686,4.9686,0,0,0-.7319-1.7529l2.858-2.858A8.989,8.989,0,0,1,52,23Z"/><path d="M39.2812,40.8525,31,38.2646V36.5735A11.0118,11.0118,0,0,0,39,26V17A15,15,0,0,0,9,17v9a11.0118,11.0118,0,0,0,8,10.5735v1.6911L8.7188,40.8525A10.9529,10.9529,0,0,0,1,51.3521V62a1,1,0,0,0,1,1H46a1,1,0,0,0,1-1V51.3521A10.9529,10.9529,0,0,0,39.2812,40.8525Zm-9.5795-.8979L37.5,42.3915V61H25V37h3c.3375,0,.67-.0208,1-.0507V39A1,1,0,0,0,29.7017,39.9546ZM11,26V17a13,13,0,0,1,26,0v9a9.01,9.01,0,0,1-9,9H20A9.01,9.01,0,0,1,11,26Zm7.2983,13.9546A1,1,0,0,0,19,39V36.9493c.33.03.6625.0507,1,.0507h3V61H10.5V42.3915ZM3,51.3521a8.9535,8.9535,0,0,1,5.5-8.288V61H3ZM45,61H39.5V43.0641a8.9535,8.9535,0,0,1,5.5,8.288Z"/></svg>
