<?xml version="1.0" encoding="UTF-8"?>
<svg id="_레이어_2" data-name="레이어 2" xmlns="http://www.w3.org/2000/svg" viewBox="0 0 57.12 57.12">
  <g id="_레이어_1-2" data-name="레이어 1">
    <g>
      <ellipse cx="23.07" cy="32.96" rx="6.84" ry="7.17"/>
      <path d="M45.78,0H11.33C5.07,0,0,5.07,0,11.33v34.45c0,6.26,5.07,11.33,11.33,11.33h34.45c6.26,0,11.33-5.07,11.33-11.33V11.33c0-6.26-5.07-11.33-11.33-11.33ZM23.83,45.61c-2.7,0-5.18-.97-7.17-2.58v1.98h-6.09V12.28h6.09v10.61c1.99-1.61,4.47-2.58,7.17-2.58,6.56,0,11.88,5.66,11.88,12.65s-5.32,12.65-11.88,12.65ZM45.82,47.73h-2.33V9.57h2.33v38.16Z"/>
    </g>
  </g>
</svg>