<?xml version="1.0" encoding="UTF-8"?>
<svg xmlns="http://www.w3.org/2000/svg" xmlns:xlink="http://www.w3.org/1999/xlink" version="1.1" id="Capa_1" x="0px" y="0px" viewBox="0 0 510.38 510.38" style="enable-background:new 0 0 510.38 510.38;" xml:space="preserve" width="512" height="512">
<g>
	
		<path style="fill-rule:evenodd;clip-rule:evenodd;fill:none;stroke:#000000;stroke-width:29.9999;stroke-linecap:round;stroke-linejoin:round;stroke-miterlimit:22.9256;" d="&#10;&#9;&#9;M199.883,356.488v70.941c0,11.279,9.23,20.512,20.511,20.512c91.662,0,183.324,0,274.985,0l-32.264-55.884V217.451&#10;&#9;&#9;c0-11.281-9.23-20.512-20.512-20.512H329.296"/>
	<g>
		<path style="fill:none;stroke:#000000;stroke-width:30;stroke-linecap:round;stroke-linejoin:round;stroke-miterlimit:10;" d="&#10;&#9;&#9;&#9;M286.69,379.186l42.804-112.387c0.875-2.138,3.902-2.142,4.781-0.005l42.415,112.392"/>
		
			<line style="fill:none;stroke:#000000;stroke-width:30;stroke-linecap:round;stroke-linejoin:round;stroke-miterlimit:10;" x1="300.039" y1="351.196" x2="363.556" y2="351.196"/>
	</g>
	
		<path style="fill-rule:evenodd;clip-rule:evenodd;fill:none;stroke:#000000;stroke-width:29.9999;stroke-linecap:round;stroke-linejoin:round;stroke-miterlimit:22.9256;" d="&#10;&#9;&#9;M171.19,62.44c86.262,0,156.19,65.366,156.19,146c0,80.634-69.928,146-156.19,146c-29.621,0-57.316-7.708-80.915-21.095&#10;&#9;&#9;c-19.215,8.506-39.836,10.964-59.568,8.047c7.397-13.99,12.894-28.906,16.372-44.318C26.961,272.497,15,241.776,15,208.44&#10;&#9;&#9;C15,127.806,84.928,62.44,171.19,62.44z"/>
	<g>
		
			<line style="fill:none;stroke:#000000;stroke-width:30;stroke-linecap:round;stroke-linejoin:round;stroke-miterlimit:10;" x1="192.439" y1="228.758" x2="228.906" y2="265.226"/>
		
			<circle style="fill:none;stroke:#000000;stroke-width:30;stroke-linecap:round;stroke-linejoin:round;stroke-miterlimit:10;" cx="171.47" cy="208.69" r="56.997"/>
	</g>
</g>















</svg>
