<svg id="line" viewBox="0 0 64 64" xmlns="http://www.w3.org/2000/svg"><path d="m56.8 31.93h-.8v-.35a24 24 0 0 0 -17.85-23.16 3.66 3.66 0 0 0 -1-2.3 3.7 3.7 0 0 0 -2.72-1.19h-4.9a3.7 3.7 0 0 0 -2.72 1.19 3.63 3.63 0 0 0 -1 2.31 23.8 23.8 0 0 0 -17.76 23.15v.35h-.85a3.2 3.2 0 0 0 -3.2 3.2v1.43a3.21 3.21 0 0 0 3.2 3.19h22.3v1.93a14.21 14.21 0 0 0 5.12 10.94l7.46 6.22a1 1 0 0 0 .64.23 1 1 0 0 0 .64-.23l7.46-6.22a14.19 14.19 0 0 0 5.18-10.94v-1.93h.85a3.21 3.21 0 0 0 3.15-3.19v-1.43a3.2 3.2 0 0 0 -3.2-3.2zm-27.3 5.82h-22.3a1.2 1.2 0 0 1 -1.2-1.19v-1.43a1.2 1.2 0 0 1 1.2-1.2h22.3zm0-6.17v.35h-7.3v-9.8a1 1 0 0 0 -2 0v9.8h-10.15v-.35a21.83 21.83 0 0 1 15.95-21.12l1 11.75a1 1 0 0 0 2-.21l-1.16-13.23a1.71 1.71 0 0 1 1.69-1.84h4.94a1.71 1.71 0 0 1 1.69 1.84l-1.11 13.23a1 1 0 0 0 .95 1.12h.08a1 1 0 0 0 1-.92l1-11.74a22 22 0 0 1 15.9 20c-5.49-.69-10.36-6.62-10.42-6.69a1 1 0 0 0 -1.55 0c-.06.07-5.56 6.76-11.45 6.76a1 1 0 0 0 -1.06 1.05zm24.5 10.1a12.24 12.24 0 0 1 -4.41 9.41l-6.82 5.68-6.87-5.68a12.23 12.23 0 0 1 -4.4-9.41v-9.15c5.08-.53 9.5-4.7 11.22-6.53 1.74 1.83 6.15 6 11.28 6.53zm4-5.12a1.2 1.2 0 0 1 -1.2 1.19h-.8v-3.82h.85a1.2 1.2 0 0 1 1.2 1.2z"/><path d="m40.22 33.05v12.06a2.48 2.48 0 0 0 2.48 2.48 2.48 2.48 0 0 0 2.47-2.48v-12.06a2.5 2.5 0 0 0 -5 0zm3 0v12.06a.47.47 0 0 1 -.47.48.48.48 0 0 1 -.48-.48v-12.06a.49.49 0 0 1 .53-.47.47.47 0 0 1 .42.47z"/><circle cx="42.72" cy="50.46" r="2.5"/></svg>