<?xml version="1.0" encoding="UTF-8"?>
<svg id="Layer_1" data-name="Layer 1" xmlns="http://www.w3.org/2000/svg" viewBox="0 0 504.76 468.16">
  <defs>
    <style>
      .cls-1 {
        stroke-width: 10px;
      }

      .cls-1, .cls-2 {
        fill: none;
        stroke: #000;
        stroke-linecap: round;
        stroke-miterlimit: 10;
      }

      .cls-2 {
        stroke-width: 10.27px;
      }
    </style>
  </defs>
  <path class="cls-1" d="M328.93,50.58l13.66,4.83,4.55,13.66c.73,2.2,2.8,3.68,5.11,3.68s4.37-1.48,5.11-3.68l4.53-13.59,13.59-4.53c2.2-.73,3.68-2.79,3.68-5.1s-1.48-4.37-3.68-5.1l-13.59-4.53-4.53-13.59c-1.47-4.39-8.74-4.39-10.21,0l-4.51,13.53-13.52,4.23c-2.21.69-3.73,2.71-3.78,5.04s1.4,4.4,3.58,5.17Z"/>
  <path class="cls-1" d="M345.43,155.47c-1.28,0-2.98.56-3.6,2.12l-11.67,29.16-29.14,11.03c-1.49.57-2.48,1.97-2.51,3.55-.03,1.57.92,3.04,2.37,3.64l29.26,12.33,11.69,29.24c.58,1.46,2.02,2.44,3.6,2.44s3.02-.98,3.6-2.43l11.68-29.2,29.2-11.68c1.48-.59,2.44-2.01,2.44-3.6s-.96-3.01-2.44-3.6l-29.2-11.68-11.68-29.2c-.62-1.57-2.26-2.12-3.59-2.12h0Z"/>
  <path class="cls-1" d="M146.98,125.24l62.98,18.61,18.48,62.98c2.01,6.29,7.62,10.38,14.26,10.38s12.26-4.14,14.31-10.55l18.44-62.81,62.94-18.49c6.33-2.02,10.42-7.63,10.42-14.27s-4.14-12.26-10.55-14.31l-62.81-18.43-.23-.79-18.06-61.97c-1.93-6.34-7.48-10.51-14.13-10.59-6.83.29-12.41,4.28-14.47,10.42l-18.61,62.93-62.77,18.3c-6.34,1.93-10.51,7.48-10.6,14.13-.09,6.63,3.99,12.3,10.39,14.46Z"/>
  <path class="cls-2" d="M11.96,347.52l22.09-23.27c39.64-39.62,92.29-61.42,148.27-61.42h129.5c18.97,0,34.4,15.43,34.4,34.4,0,8.77-3.31,17.13-9.33,23.53l-.49.45c-.23.22-.5.49-.78.82l-.1.11c-6.43,6.12-14.85,9.49-23.69,9.49h-109.52c-5.19,0-9.41,4.22-9.41,9.41s4.22,9.41,9.41,9.41h109.52c14.31,0,27.74-5.62,37.83-15.82l91.6-83.47c7.01-6.99,16.89-10.63,27.06-9.93,10.22.82,19.2,5.95,25.33,14.43,9.63,13.39,7.46,32.92-5.04,45.43l-120.62,108.29c-38.54,34.59-88.28,53.64-140.06,53.64H5.13"/>
</svg>